<svg width="20" height="20" viewBox="0 0 20 20" fill="none" xmlns="http://www.w3.org/2000/svg">
<path d="M12.9467 3.31259L12.7257 3.09165C12.6967 3.0626 12.6622 3.03955 12.6243 3.02382C12.5864 3.00809 12.5457 3 12.5046 3C12.4636 3 12.4229 3.00809 12.385 3.02382C12.347 3.03955 12.3125 3.0626 12.2835 3.09165L6.09165 9.28353C6.0626 9.31255 6.03955 9.34702 6.02382 9.38495C6.00809 9.42289 6 9.46355 6 9.50462C6 9.54569 6.00809 9.58635 6.02382 9.62429C6.03955 9.66223 6.0626 9.69669 6.09165 9.72571L12.2835 15.9176C12.3125 15.9466 12.347 15.9697 12.385 15.9854C12.4229 16.0011 12.4636 16.0092 12.5046 16.0092C12.5457 16.0092 12.5864 16.0011 12.6243 15.9854C12.6622 15.9697 12.6967 15.9466 12.7257 15.9176L12.9467 15.6967C13.0052 15.6381 13.0381 15.5586 13.0381 15.4757C13.0381 15.3929 13.0052 15.3134 12.9467 15.2548L7.19665 9.50478L12.9467 3.75478C12.9757 3.72575 12.9988 3.69129 13.0145 3.65335C13.0302 3.61542 13.0383 3.57475 13.0383 3.53368C13.0383 3.49262 13.0302 3.45195 13.0145 3.41401C12.9988 3.37608 12.9757 3.34161 12.9467 3.31259Z" fill="#AEAEAE"/>
</svg>
