<?xml version="1.0" encoding="UTF-8"?>
<svg width="48" height="48" viewBox="0 0 48 48" fill="none" xmlns="http://www.w3.org/2000/svg">
  <!-- Background circle -->
  <circle cx="24" cy="24" r="24" fill="#0D99FF"/>

  <!-- Clipboard icon -->
  <rect x="14" y="10" width="20" height="28" rx="2" stroke="white" stroke-width="2" fill="none"/>
  <path d="M19 8H29C29.5523 8 30 8.44772 30 9V11C30 11.5523 29.5523 12 29 12H19C18.4477 12 18 11.5523 18 11V9C18 8.44772 18.4477 8 19 8Z" stroke="white" stroke-width="2" fill="none"/>

  <!-- Todo lines -->
  <path d="M22 18H30" stroke="white" stroke-width="2" stroke-linecap="round"/>
  <path d="M22 24H30" stroke="white" stroke-width="2" stroke-linecap="round"/>
  <path d="M22 30H27" stroke="white" stroke-width="2" stroke-linecap="round"/>

  <!-- Checkboxes -->
  <rect x="16" y="16" width="4" height="4" rx="1" stroke="white" stroke-width="1.5" fill="none"/>
  <rect x="16" y="22" width="4" height="4" rx="1" stroke="white" stroke-width="1.5" fill="none"/>
  <rect x="16" y="28" width="4" height="4" rx="1" stroke="white" stroke-width="1.5" fill="none"/>

  <!-- Checkmark on first item -->
  <path d="M17 18L18 19L20 17" stroke="white" stroke-width="1.5" stroke-linecap="round" stroke-linejoin="round"/>
</svg>
