<svg width="24" height="24" viewBox="0 0 24 24" fill="none" xmlns="http://www.w3.org/2000/svg">
<path d="M10.0714 4.38092C10.259 4.38092 10.4448 4.41787 10.6181 4.48966C10.7914 4.56146 10.9489 4.66668 11.0816 4.79934C11.2142 4.93199 11.3195 5.08948 11.3913 5.2628C11.463 5.43612 11.5 5.62189 11.5 5.80949V10.0952C11.5 10.2828 11.463 10.4686 11.3913 10.6419C11.3195 10.8152 11.2142 10.9727 11.0816 11.1054C10.9489 11.238 10.7914 11.3432 10.6181 11.415C10.4448 11.4868 10.259 11.5238 10.0714 11.5238H5.78571C5.59811 11.5238 5.41235 11.4868 5.23902 11.415C5.0657 11.3432 4.90822 11.238 4.77556 11.1054C4.64291 10.9727 4.53768 10.8152 4.46589 10.6419C4.39409 10.4686 4.35714 10.2828 4.35714 10.0952V5.80949C4.35714 5.43061 4.50765 5.06725 4.77556 4.79934C5.04347 4.53143 5.40683 4.38092 5.78571 4.38092H10.0714ZM5.78571 5.80949V10.0952H10.0714V5.80949H5.78571ZM10.0714 12.4762C10.259 12.4762 10.4448 12.5131 10.6181 12.5849C10.7914 12.6567 10.9489 12.7619 11.0816 12.8946C11.2142 13.0272 11.3195 13.1847 11.3913 13.358C11.463 13.5314 11.5 13.7171 11.5 13.9047V18.1904C11.5 18.378 11.463 18.5638 11.3913 18.7371C11.3195 18.9105 11.2142 19.0679 11.0816 19.2006C10.9489 19.3333 10.7914 19.4385 10.6181 19.5103C10.4448 19.5821 10.259 19.619 10.0714 19.619H5.78571C5.40683 19.619 5.04347 19.4685 4.77556 19.2006C4.50765 18.9327 4.35714 18.5693 4.35714 18.1904V13.9047C4.35714 13.7171 4.39409 13.5314 4.46589 13.358C4.53768 13.1847 4.64291 13.0272 4.77556 12.8946C4.90822 12.7619 5.0657 12.6567 5.23902 12.5849C5.41235 12.5131 5.59811 12.4762 5.78571 12.4762H10.0714ZM5.78571 13.9047V18.1904H10.0714V13.9047H5.78571ZM12.4524 5.5714V6.99997H19.3571V5.5714H12.4524ZM12.4524 13.9047V15.3333H19.3571V13.9047H12.4524ZM12.4524 8.66664V10.0952H19.3571V8.66664H12.4524ZM12.4524 17V18.4285H19.3571V17H12.4524Z" fill="#AEAEAE"/>
</svg>
