<svg width="24" height="24" viewBox="0 0 24 24" fill="none" xmlns="http://www.w3.org/2000/svg">
<path d="M14.6717 4.45383C14.8388 4.52626 14.9907 4.62966 15.1194 4.75854L18.9015 8.54449C19.0671 8.71037 19.19 8.9141 19.2592 9.13809C19.3285 9.36206 19.3424 9.59953 19.2993 9.83001C19.2563 10.0605 19.1577 10.277 19.0123 10.4609C18.8669 10.6448 18.6787 10.7905 18.4644 10.8854L17.1243 11.4789L14.6101 14.0009L14.4108 16.7647C14.3909 17.0409 14.2921 17.3053 14.126 17.5269C13.9601 17.7485 13.734 17.9175 13.4746 18.0141C13.2152 18.1107 12.9335 18.1308 12.6631 18.0718C12.3926 18.0129 12.1448 17.8776 11.9491 17.6819L9.50764 15.2379L5.34718 19.4177L4.3238 18.3986L8.48666 14.2164L5.96093 11.6888C5.76557 11.4932 5.63043 11.2457 5.57157 10.9757C5.51271 10.7056 5.53257 10.4244 5.62883 10.1653C5.72508 9.90615 5.89366 9.68011 6.11455 9.51398C6.33545 9.34785 6.5994 9.24861 6.87504 9.22803L9.72281 9.01527L12.1922 6.54297L12.7723 5.20478C12.8476 5.03073 12.9566 4.87324 13.0929 4.7413C13.2291 4.60937 13.3901 4.50558 13.5664 4.43584C13.7428 4.36611 13.9312 4.33181 14.1209 4.33489C14.3105 4.33798 14.4977 4.3784 14.6717 4.45383ZM14.0975 5.77903L13.4081 7.369L10.3659 10.416L6.9819 10.6678L12.9706 16.6608L13.2084 13.3557L16.293 10.2673L17.88 9.56451L14.0975 5.77903Z" fill="#AEAEAE"/>
</svg>
