<svg width="24" height="24" viewBox="0 0 24 24" fill="none" xmlns="http://www.w3.org/2000/svg">
<path d="M14.6717 4.45385C14.8388 4.52628 14.9907 4.62967 15.1194 4.75856L18.9015 8.54451C19.0672 8.7104 19.19 8.91413 19.2593 9.1381C19.3286 9.36208 19.3423 9.59956 19.2993 9.83002C19.2562 10.0605 19.1577 10.277 19.0123 10.4609C18.8668 10.6448 18.6788 10.7905 18.4644 10.8854L17.1243 11.4789L14.6101 13.996L14.4108 16.7648C14.3909 17.0409 14.2921 17.3054 14.1261 17.5269C13.9601 17.7484 13.734 17.9175 13.4746 18.0142C13.2152 18.1108 12.9335 18.1308 12.6631 18.0719C12.3926 18.013 12.1448 17.8776 11.9491 17.6818L9.50763 15.2379L5.34718 19.4176L4.3238 18.3986L8.48665 14.2164L5.96092 11.6888C5.76557 11.4933 5.63044 11.2458 5.57157 10.9757C5.5127 10.7056 5.53257 10.4244 5.62882 10.1653C5.72507 9.90616 5.89366 9.68013 6.11456 9.514C6.33546 9.34787 6.5994 9.24862 6.87504 9.22805L9.7228 9.01528L12.1922 6.54298L12.7723 5.20478C12.8477 5.03074 12.9566 4.87325 13.0929 4.74132C13.2291 4.60939 13.3901 4.50559 13.5664 4.43586C13.7428 4.36612 13.9312 4.33182 14.1209 4.33491C14.3105 4.338 14.4977 4.37841 14.6717 4.45385ZM14.0975 5.77905L13.4081 7.36901L10.3659 10.4161L6.9819 10.6678L12.9706 16.6608L13.2084 13.3558L16.293 10.2673L17.88 9.56452L14.0975 5.77905Z" fill="#AEAEAE"/>
</svg>
