<svg width="20" height="20" viewBox="0 0 20 20" fill="none" xmlns="http://www.w3.org/2000/svg">
<path d="M14.1504 7.39954C14.4376 7.39954 14.6709 7.63287 14.6709 7.92004V16.2101C14.6707 16.4971 14.4374 16.7296 14.1504 16.7296H5.83984C5.55281 16.7296 5.31955 16.4971 5.31934 16.2101V7.92004C5.31934 7.63287 5.55267 7.39954 5.83984 7.39954C6.12685 7.39974 6.35938 7.633 6.35938 7.92004V15.6896H13.6309V7.92004C13.6309 7.63298 13.8634 7.39971 14.1504 7.39954ZM8.45605 8.44641C8.74323 8.44641 8.97656 8.67975 8.97656 8.96692V13.5909C8.97653 13.8781 8.7432 14.1105 8.45605 14.1105C8.16906 14.1103 7.93657 13.878 7.93652 13.5909V8.96692C7.93652 8.67986 8.16903 8.44659 8.45605 8.44641ZM11.5684 8.44641C11.8555 8.44641 12.0889 8.67975 12.0889 8.96692V13.5909C12.0888 13.8781 11.8555 14.1105 11.5684 14.1105C11.2813 14.1103 11.0489 13.878 11.0488 13.5909V8.96692C11.0488 8.67984 11.2813 8.44657 11.5684 8.44641ZM9.97559 3.30676C11.1076 3.30692 12.034 4.20268 12.085 5.32239H15.4502C15.7374 5.32239 15.9707 5.55572 15.9707 5.8429C15.9705 6.12991 15.7373 6.36243 15.4502 6.36243H4.49121C4.20415 6.36243 3.97088 6.12991 3.9707 5.8429C3.9707 5.55572 4.20404 5.32239 4.49121 5.32239H7.86523C7.91623 4.20257 8.8434 3.30676 9.97559 3.30676ZM9.97559 4.3468C9.41701 4.3468 8.95652 4.77644 8.90723 5.32239H11.043C10.9937 4.77656 10.534 4.34695 9.97559 4.3468Z" fill="black"/>
</svg>
